<?xml version="1.0" encoding="UTF-8" standalone="no"?>
<!DOCTYPE svg PUBLIC "-//W3C//DTD SVG 1.1//EN" "http://www.w3.org/Graphics/SVG/1.1/DTD/svg11.dtd">
<svg width="100%" height="100%" viewBox="0 0 16 16" version="1.1" xmlns="http://www.w3.org/2000/svg" xmlns:xlink="http://www.w3.org/1999/xlink" xml:space="preserve" xmlns:serif="http://www.serif.com/" style="fill-rule:evenodd;clip-rule:evenodd;stroke-linecap:round;stroke-linejoin:round;stroke-miterlimit:1.5;">
    <g transform="matrix(0.90625,0,0,0.875,0.75,1)">
        <path d="M16,12C16,14.208 14.208,16 12,16L4,16C1.695,15.767 0.233,14.305 0,12L0,5L16,5L16,12Z" style="fill:rgb(226,219,219);stroke:black;stroke-width:1.4px;"/>
        <path d="M0,4C0,1.792 1.792,0 4,0L12,0C14.208,0 16,1.792 16,4L16,5L0,5L0,4Z" style="fill:rgb(224,100,100);stroke:black;stroke-width:1.4px;"/>
    </g>
    <g transform="matrix(1,0,0,1,3,-4.8)">
        <circle cx="2" cy="8" r="1" style="fill:white;"/>
    </g>
    <g transform="matrix(1,0,0,1,9,-4.8)">
        <circle cx="2" cy="8" r="1" style="fill:white;"/>
    </g>
    <g transform="matrix(1.05,0,0,1.7,-0.4,-4.9)">
        <path d="M13,7.25C13,7.112 12.819,7 12.595,7L3.405,7C3.181,7 3,7.112 3,7.25L3,7.75C3,7.888 3.181,8 3.405,8L12.595,8C12.819,8 13,7.888 13,7.75L13,7.25Z" style="fill:rgb(36,39,50);fill-opacity:0.71;"/>
    </g>
    <g transform="matrix(1.05,0,0,1.7,-0.4,-2.7)">
        <path d="M13,7.25C13,7.112 12.819,7 12.595,7L3.405,7C3.181,7 3,7.112 3,7.25L3,7.75C3,7.888 3.181,8 3.405,8L12.595,8C12.819,8 13,7.888 13,7.75L13,7.25Z" style="fill:rgb(36,39,50);fill-opacity:0.71;"/>
    </g>
    <g transform="matrix(1.05,0,0,1.7,-0.4,-0.5)">
        <path d="M13,7.25C13,7.112 12.819,7 12.595,7L3.405,7C3.181,7 3,7.112 3,7.25L3,7.75C3,7.888 3.181,8 3.405,8L12.595,8C12.819,8 13,7.888 13,7.75L13,7.25Z" style="fill:rgb(36,39,50);fill-opacity:0.71;"/>
    </g>
</svg>
